<?xml version="1.0" standalone="no"?>
<!DOCTYPE svg PUBLIC "-//W3C//DTD SVG 20010904//EN"
 "http://www.w3.org/TR/2001/REC-SVG-20010904/DTD/svg10.dtd">
<svg version="1.0" xmlns="http://www.w3.org/2000/svg"
 width="700.000000pt" height="700.000000pt" viewBox="0 0 700.000000 700.000000"
 preserveAspectRatio="xMidYMid meet">
<metadata>
Created by potrace 1.11, written by Peter Selinger 2001-2013
</metadata>
<g transform="translate(0.000000,700.000000) scale(0.100000,-0.100000)"
fill="#000000" stroke="none">
<path d="M862 5991 c1 -4 493 -1197 1093 -2649 l1090 -2642 406 0 c316 0 408
3 412 13 3 6 492 1191 1087 2632 595 1441 1084 2628 1087 2638 5 16 -23 17
-493 17 l-499 0 -769 -1973 c-423 -1084 -779 -1993 -790 -2019 l-21 -48 -791
2018 -791 2017 -512 3 c-291 1 -511 -2 -509 -7z"/>
</g>
</svg>
